<?xml version="1.0" encoding="UTF-8"?>
<svg id="Capa_1" data-name="Capa 1" xmlns="http://www.w3.org/2000/svg" viewBox="0 0 800 500">
  <defs>
    <style>
      .cls-1 {
        fill: #0c0c0c;
      }

      .cls-1, .cls-2, .cls-3 {
        stroke-width: 0px;
      }

      .cls-2 {
        fill: #ebedee;
      }

      .cls-3 {
        fill: #f5f6f6;
      }
    </style>
  </defs>
  <g>
    <path class="cls-2" d="m311.05,286v-56.05h6.28l1.98,8.1h-.83v22.98h.83v24.96h-8.27Zm20.42-14.88c-3.64,0-6.81-.87-9.51-2.6-2.7-1.74-4.81-4.17-6.32-7.32-1.52-3.14-2.27-6.81-2.27-10.99s.76-7.94,2.27-11.08c1.51-3.14,3.62-5.59,6.32-7.36,2.7-1.76,5.87-2.65,9.51-2.65s7.01.88,9.79,2.65c2.78,1.76,4.95,4.22,6.49,7.36,1.54,3.14,2.31,6.83,2.31,11.08s-.77,7.85-2.31,10.99c-1.54,3.14-3.71,5.58-6.49,7.32-2.78,1.74-6.05,2.6-9.79,2.6Zm-1.24-7.11c3.41,0,6.17-1.27,8.27-3.8,2.09-2.53,3.14-5.87,3.14-10s-1.05-7.56-3.14-10.13c-2.1-2.56-4.85-3.84-8.27-3.84s-6.09,1.27-8.18,3.8c-2.1,2.54-3.14,5.9-3.14,10.08s1.05,7.55,3.14,10.09c2.09,2.54,4.82,3.8,8.18,3.8Z"/>
    <path class="cls-2" d="m372.72,229.95l1.98,10.91v29.43h-8.27v-40.34h6.28Zm.74,14.3l-1.98-.91v-6.03l.74-.91c.55-.99,1.42-2.05,2.6-3.18,1.18-1.13,2.58-2.09,4.17-2.89,1.6-.8,3.22-1.2,4.88-1.2.83,0,1.61.06,2.35.17.75.11,1.31.3,1.7.58v7.44h-2.56c-3.75,0-6.48.57-8.19,1.69-1.71,1.13-2.95,2.88-3.72,5.25Z"/>
    <path class="cls-2" d="m421.4,271.12c-4.08,0-7.67-.87-10.79-2.6-3.11-1.74-5.52-4.17-7.23-7.32-1.71-3.14-2.56-6.81-2.56-10.99s.85-7.94,2.56-11.08c1.71-3.14,4.12-5.59,7.23-7.36,3.11-1.76,6.71-2.65,10.79-2.65s7.74.88,10.83,2.65c3.08,1.76,5.49,4.22,7.23,7.36,1.74,3.14,2.6,6.83,2.6,11.08s-.87,7.85-2.6,10.99c-1.74,3.14-4.15,5.58-7.23,7.32-3.09,1.74-6.7,2.6-10.83,2.6Zm0-7.94c3.69,0,6.65-1.2,8.89-3.6,2.23-2.4,3.35-5.52,3.35-9.38s-1.12-7.08-3.35-9.51c-2.23-2.42-5.2-3.64-8.89-3.64s-6.57,1.2-8.8,3.6c-2.23,2.4-3.35,5.55-3.35,9.46s1.12,7.07,3.35,9.47c2.23,2.4,5.17,3.6,8.8,3.6Z"/>
    <path class="cls-2" d="m455.71,237.56v-7.61h23.06v7.61h-23.06Zm17.69,33.48c-3.53,0-6.32-1.03-8.39-3.1s-3.1-5.28-3.1-9.63v-28.35l1.57-9.09h6.69v37.61c0,1.54.4,2.7,1.2,3.47.8.77,1.81,1.16,3.02,1.16.94,0,1.76-.05,2.48-.16.72-.11,1.35-.25,1.9-.41v7.69c-.72.22-1.5.41-2.36.58-.86.17-1.86.25-3.02.25Z"/>
    <path class="cls-2" d="m514.65,271.12c-4.08,0-7.67-.87-10.79-2.6-3.12-1.74-5.53-4.17-7.23-7.32-1.71-3.14-2.56-6.81-2.56-10.99s.86-7.94,2.56-11.08c1.71-3.14,4.12-5.59,7.23-7.36,3.11-1.76,6.71-2.65,10.79-2.65s7.74.88,10.83,2.65c3.09,1.76,5.5,4.22,7.23,7.36,1.74,3.14,2.6,6.83,2.6,11.08s-.87,7.85-2.6,10.99c-1.74,3.14-4.15,5.58-7.23,7.32-3.09,1.74-6.69,2.6-10.83,2.6Zm0-7.94c3.69,0,6.65-1.2,8.89-3.6,2.23-2.4,3.35-5.52,3.35-9.38s-1.11-7.08-3.35-9.51c-2.23-2.42-5.19-3.64-8.89-3.64s-6.57,1.2-8.8,3.6c-2.23,2.4-3.35,5.55-3.35,9.46s1.12,7.07,3.35,9.47c2.23,2.4,5.17,3.6,8.8,3.6Z"/>
    <path class="cls-2" d="m569.53,271.12c-4.13,0-7.72-.9-10.75-2.69-3.03-1.79-5.37-4.26-7.03-7.4-1.65-3.14-2.48-6.78-2.48-10.91s.83-7.77,2.48-10.91c1.65-3.14,3.99-5.61,7.03-7.4,3.03-1.79,6.61-2.69,10.75-2.69,3.91,0,7.47,1.06,10.66,3.18,3.19,2.12,5.51,4.95,6.94,8.47l-7.85,3.31c-.88-2.31-2.21-4.06-3.97-5.25-1.77-1.18-3.78-1.78-6.04-1.78-3.3,0-6.06,1.14-8.27,3.43-2.2,2.29-3.3,5.5-3.3,9.63s1.1,7.34,3.3,9.63c2.2,2.29,4.96,3.43,8.27,3.43,2.26,0,4.27-.59,6.04-1.78,1.76-1.18,3.09-2.93,3.97-5.25l7.85,3.31c-1.49,3.53-3.82,6.35-6.99,8.47-3.17,2.12-6.71,3.18-10.62,3.18Z"/>
    <path class="cls-2" d="m620.29,271.12c-4.08,0-7.67-.87-10.79-2.6-3.11-1.74-5.52-4.17-7.23-7.32-1.71-3.14-2.56-6.81-2.56-10.99s.85-7.94,2.56-11.08c1.71-3.14,4.12-5.59,7.23-7.36,3.11-1.76,6.71-2.65,10.79-2.65s7.74.88,10.83,2.65c3.08,1.76,5.49,4.22,7.23,7.36,1.74,3.14,2.6,6.83,2.6,11.08s-.87,7.85-2.6,10.99c-1.74,3.14-4.15,5.58-7.23,7.32-3.09,1.74-6.7,2.6-10.83,2.6Zm0-7.94c3.69,0,6.65-1.2,8.89-3.6,2.23-2.4,3.35-5.52,3.35-9.38s-1.12-7.08-3.35-9.51c-2.23-2.42-5.2-3.64-8.89-3.64s-6.57,1.2-8.8,3.6c-2.23,2.4-3.35,5.55-3.35,9.46s1.12,7.07,3.35,9.47c2.23,2.4,5.17,3.6,8.8,3.6Z"/>
    <path class="cls-2" d="m664.35,270.71c-1.43,0-2.7-.34-3.8-1.03-1.1-.69-1.97-1.69-2.6-3.02-.64-1.32-.95-2.95-.95-4.88v-47.78h8.1v44.89c0,1.71.43,2.87,1.28,3.47.85.61,1.83.91,2.93.91v6.61c-.72.28-1.49.48-2.31.62-.83.14-1.71.21-2.65.21Z"/>
  </g>
  <g>
    <circle class="cls-3" cx="203.09" cy="250" r="72.4"/>
    <g>
      <path class="cls-1" d="m187.61,266.57c-3.91-4.2-5.86-9.72-5.86-16.57s1.95-12.37,5.86-16.57c2.36-2.54,5.19-4.3,8.45-5.3v-14.34c-4.34.69-8.32,2.04-11.92,4.09-5.45,3.09-9.67,7.38-12.66,12.88-2.99,5.5-4.49,11.96-4.49,19.39s1.49,13.75,4.49,19.25c2.99,5.5,7.21,9.77,12.66,12.81,3.6,2.01,7.58,3.34,11.92,4.02v-14.35c-3.26-1-6.09-2.76-8.45-5.3Z"/>
      <path class="cls-1" d="m234.64,230.75c-3.04-5.5-7.26-9.79-12.66-12.88-3.55-2.03-7.51-3.38-11.85-4.07v14.36c3.28,1.02,6.1,2.79,8.45,5.34,3.91,4.25,5.86,9.79,5.86,16.64s-1.95,12.23-5.86,16.43c-2.35,2.52-5.17,4.27-8.45,5.28v14.36c4.34-.68,8.3-2.01,11.85-4.01,5.4-3.04,9.62-7.31,12.66-12.81,3.04-5.5,4.56-11.91,4.56-19.25s-1.52-13.89-4.56-19.39Z"/>
    </g>
    <circle class="cls-1" cx="203.09" cy="250" r="9"/>
  </g>
</svg>