<svg width="218" height="44" viewBox="0 0 218 44" fill="none" xmlns="http://www.w3.org/2000/svg">
<path d="M0.00607586 44V9.92607H3.82381L5.0275 14.8502H4.52293V28.8202H5.0275V43.9939H0L0.00607586 44ZM12.4198 34.9542C10.207 34.9542 8.27987 34.4253 6.63849 33.3736C4.9971 32.3158 3.7144 30.8385 2.79644 28.9236C1.8724 27.0147 1.41646 24.7837 1.41646 22.2425C1.41646 19.7014 1.87848 17.4156 2.79644 15.5068C3.7144 13.5979 4.9971 12.1085 6.63849 11.0325C8.27987 9.96255 10.207 9.42151 12.4198 9.42151C14.6326 9.42151 16.6813 9.95648 18.3714 11.0325C20.0614 12.1024 21.3806 13.5979 22.3168 15.5068C23.253 17.4156 23.7211 19.6589 23.7211 22.2425C23.7211 24.8262 23.253 27.0147 22.3168 28.9236C21.3806 30.8325 20.0614 32.3158 18.3714 33.3736C16.6813 34.4313 14.6934 34.9542 12.4198 34.9542ZM11.666 30.6318C13.739 30.6318 15.4169 29.8598 16.6935 28.3218C17.9641 26.7837 18.6024 24.7533 18.6024 22.2425C18.6024 19.7318 17.9641 17.6467 16.6935 16.0843C15.4169 14.528 13.7451 13.7499 11.666 13.7499C9.58691 13.7499 7.96375 14.522 6.6932 16.06C5.41657 17.6041 4.78433 19.6467 4.78433 22.1878C4.78433 24.7289 5.42265 26.7776 6.6932 28.3218C7.96375 29.8659 9.62338 30.6318 11.666 30.6318Z" fill="#545456"/>
<path d="M37.4967 9.92611L38.7003 16.5585V34.4496H33.6729V9.92611H37.4906H37.4967ZM37.9465 18.6194L36.7428 18.0662V14.4004L37.1927 13.8472C37.5271 13.2454 38.056 12.601 38.7733 11.914C39.4907 11.2271 40.3417 10.6435 41.3083 10.1571C42.281 9.67079 43.2658 9.42761 44.275 9.42761C44.7796 9.42761 45.2537 9.4641 45.7036 9.53097C46.1595 9.59784 46.5 9.71333 46.7371 9.88355V14.4065H45.1808C42.9011 14.4065 41.2415 14.753 40.2019 15.4339C39.1624 16.1208 38.4085 17.1847 37.9404 18.6255L37.9465 18.6194Z" fill="#545456"/>
<path d="M67.0901 34.9542C64.6098 34.9542 62.4273 34.4253 60.5306 33.3736C58.64 32.3158 57.1749 30.8385 56.1354 28.9236C55.0958 27.0147 54.5791 24.7837 54.5791 22.2425C54.5791 19.7014 55.0958 17.4156 56.1354 15.5068C57.1749 13.5979 58.64 12.1085 60.5306 11.0325C62.4213 9.96255 64.6098 9.42151 67.0901 9.42151C69.5704 9.42151 71.7954 9.95648 73.6739 11.0325C75.5463 12.1024 77.0114 13.5979 78.0691 15.5068C79.1269 17.4156 79.6497 19.6589 79.6497 22.2425C79.6497 24.8262 79.1208 27.0147 78.0691 28.9236C77.0114 30.8325 75.5463 32.3158 73.6739 33.3736C71.7954 34.4313 69.6008 34.9542 67.0901 34.9542ZM67.0901 30.1273C69.3333 30.1273 71.1328 29.3978 72.4945 27.9388C73.8502 26.4797 74.531 24.583 74.531 22.2365C74.531 19.8899 73.8502 17.9324 72.4945 16.4551C71.1388 14.984 69.3333 14.2423 67.0901 14.2423C64.8469 14.2423 63.0961 14.9718 61.7404 16.4308C60.3847 17.8898 59.7039 19.8048 59.7039 22.1818C59.7039 24.5587 60.3847 26.4797 61.7404 27.9388C63.0961 29.3978 64.8833 30.1273 67.0901 30.1273Z" fill="#545456"/>
<path d="M87.9473 14.5523V9.92604H101.966V14.5523H87.9473ZM98.7014 34.9055C96.5554 34.9055 94.8593 34.2793 93.6009 33.0209C92.3425 31.7625 91.7164 29.8111 91.7164 27.1666V9.93212L92.6708 4.40613H96.7378V27.27C96.7378 28.2062 96.981 28.9114 97.4673 29.3795C97.9536 29.8476 98.5676 30.0847 99.3032 30.0847C99.8747 30.0847 100.373 30.0543 100.811 29.9874C101.249 29.9205 101.632 29.8354 101.966 29.7382V34.4131C101.528 34.5468 101.054 34.6623 100.531 34.7657C100.008 34.869 99.4005 34.9176 98.6953 34.9176L98.7014 34.9055Z" fill="#545456"/>
<path d="M123.779 34.9542C121.298 34.9542 119.116 34.4253 117.219 33.3736C115.322 32.3158 113.857 30.8385 112.824 28.9236C111.784 27.0147 111.268 24.7837 111.268 22.2425C111.268 19.7014 111.79 17.4156 112.824 15.5068C113.863 13.5979 115.328 12.1085 117.219 11.0325C119.11 9.96255 121.298 9.42151 123.779 9.42151C126.259 9.42151 128.484 9.95648 130.362 11.0325C132.241 12.1024 133.706 13.5979 134.758 15.5068C135.815 17.4156 136.338 19.6589 136.338 22.2425C136.338 24.8262 135.809 27.0147 134.758 28.9236C133.7 30.8325 132.235 32.3158 130.362 33.3736C128.484 34.4313 126.295 34.9542 123.779 34.9542ZM123.779 30.1273C126.022 30.1273 127.821 29.3978 129.183 27.9388C130.539 26.4797 131.22 24.583 131.22 22.2365C131.22 19.8899 130.545 17.9324 129.183 16.4551C127.827 14.984 126.028 14.2423 123.779 14.2423C121.529 14.2423 119.785 14.9718 118.429 16.4308C117.073 17.8898 116.392 19.8048 116.392 22.1818C116.392 24.5587 117.073 26.4797 118.429 27.9388C119.785 29.3978 121.572 30.1273 123.779 30.1273Z" fill="#545456"/>
<path d="M157.148 34.9542C154.637 34.9542 152.454 34.407 150.612 33.3189C148.77 32.2307 147.348 30.7291 146.339 28.8202C145.336 26.9114 144.831 24.6985 144.831 22.1878C144.831 19.6771 145.336 17.4643 146.339 15.5554C147.342 13.6466 148.764 12.145 150.612 11.0568C152.454 9.96862 154.631 9.42151 157.148 9.42151C159.524 9.42151 161.689 10.0659 163.628 11.3547C165.567 12.6435 166.978 14.3639 167.847 16.5038L163.075 18.516C162.54 17.1117 161.731 16.0478 160.661 15.3244C159.585 14.6071 158.363 14.2423 156.989 14.2423C154.983 14.2423 153.305 14.9353 151.962 16.3275C150.625 17.7196 149.956 19.671 149.956 22.1818C149.956 24.6925 150.625 26.6439 151.962 28.036C153.299 29.4282 154.977 30.1212 156.989 30.1212C158.363 30.1212 159.585 29.7625 160.661 29.0391C161.731 28.3217 162.54 27.2579 163.075 25.8475L167.847 27.8597C166.941 30.0057 165.525 31.72 163.598 33.0088C161.67 34.2976 159.518 34.942 157.141 34.942L157.148 34.9542Z" fill="#545456"/>
<path d="M188 34.9542C185.519 34.9542 183.337 34.4253 181.44 33.3736C179.55 32.3158 178.085 30.8385 177.045 28.9236C176.006 27.0147 175.489 24.7837 175.489 22.2425C175.489 19.7014 176.006 17.4156 177.045 15.5068C178.085 13.5979 179.55 12.1085 181.44 11.0325C183.331 9.96255 185.519 9.42151 188 9.42151C190.48 9.42151 192.705 9.95648 194.584 11.0325C196.456 12.1024 197.921 13.5979 198.979 15.5068C200.037 17.4156 200.559 19.6589 200.559 22.2425C200.559 24.8262 200.031 27.0147 198.979 28.9236C197.921 30.8325 196.456 32.3158 194.584 33.3736C192.705 34.4313 190.51 34.9542 188 34.9542ZM188 30.1273C190.243 30.1273 192.042 29.3978 193.404 27.9388C194.76 26.4797 195.441 24.583 195.441 22.2365C195.441 19.8899 194.76 17.9324 193.404 16.4551C192.049 14.984 190.243 14.2423 188 14.2423C185.757 14.2423 184.006 14.9718 182.65 16.4308C181.294 17.8898 180.614 19.8048 180.614 22.1818C180.614 24.5587 181.294 26.4797 182.65 27.9388C184.006 29.3978 185.793 30.1273 188 30.1273Z" fill="#545456"/>
<path d="M214.785 34.7048C213.915 34.7048 213.143 34.4981 212.475 34.0786C211.806 33.6592 211.277 33.0512 210.894 32.2427C210.505 31.4402 210.316 30.4493 210.316 29.276V0.229614H215.241V27.5192C215.241 28.5587 215.502 29.2639 216.019 29.6286C216.535 29.9995 217.131 30.1819 217.8 30.1819V34.2002C217.362 34.3704 216.894 34.492 216.396 34.5771C215.891 34.6622 215.356 34.7048 214.785 34.7048Z" fill="#545456"/>
</svg>
